<svg version="1.1" xmlns="http://www.w3.org/2000/svg" viewBox="-2255.8405130061633 -1517.5681030273438 6568.928727117491 2310.144140625"><desc>Created with Snap</desc><defs></defs><g><rect x="-2255.8405130061633" y="-1517.5681030273438" width="6568.928727117491" height="2310.144140625" style="" fill="#4361ee"></rect><g transform="matrix(18.8413,0,0,18.8413,-2042.8475,-1304.5561)"><g transform="translate(0,-952.36218)"><path style="" d="m 45.719885,957.36164 3.18651,38.66594 c -0.0104,0.002 -0.0207,0.005 -0.0312,0.007 -0.004,7.7e-4 -0.008,0.002 -0.0117,0.003 -0.0463,0.009 -0.093,0.0154 -0.13911,0.0247 -0.004,7.6e-4 -0.008,0.002 -0.0116,0.003 -0.0493,0.01 -0.0979,0.0214 -0.14692,0.0325 -0.006,9.5e-4 -0.0104,0.003 -0.0156,0.004 -0.2469,0.0566 -0.49069,0.12668 -0.72935,0.21192 -0.0121,0.005 -0.0243,0.009 -0.0364,0.013 -0.0131,0.005 -0.026,0.009 -0.039,0.0143 l -16.53063,-35.06206 -7.4261,4.25388 22.0885,31.88727 c -0.0888,0.0738 -0.17625,0.14988 -0.26131,0.22881 -0.007,0.007 -0.0138,0.013 -0.0208,0.0195 -0.0278,0.026 -0.0546,0.0528 -0.082,0.0793 -0.0108,0.0104 -0.0218,0.0207 -0.0325,0.0312 -0.027,0.0265 -0.054,0.0535 -0.0806,0.0806 -0.12959,0.13168 -0.25391,0.2685 -0.37052,0.40953 l -31.84697,-22.10018 -4.30459,7.3975 35.07899,16.57354 c -0.003,0.01 -0.006,0.016 -0.009,0.025 -0.0102,0.028 -0.0201,0.055 -0.0299,0.083 -0.004,0.012 -0.008,0.023 -0.0116,0.035 -0.01,0.029 -0.0205,0.057 -0.0299,0.086 -0.008,0.023 -0.0149,0.046 -0.0221,0.069 -0.0107,0.034 -0.0211,0.068 -0.0312,0.1014 -0.005,0.015 -0.009,0.029 -0.013,0.044 -0.009,0.032 -0.0187,0.063 -0.0273,0.095 -0.005,0.019 -0.009,0.037 -0.0143,0.056 -0.007,0.023 -0.0123,0.047 -0.0182,0.07 -0.004,0.015 -0.007,0.029 -0.0104,0.044 -0.0341,0.1397 -0.0639,0.2792 -0.0884,0.4199 l -38.65164,-3.1839 0.0299,8.5572 38.61653,-3.2138 c 0.0675,0.4021 0.1727,0.7969 0.31462,1.1792 l -35.06208,16.5293 4.25389,7.4274 31.88726,-22.0898 c 0.25307,0.3044 0.53719,0.5885 0.85027,0.8463 l -22.10152,31.8496 7.3975,4.3046 16.57354,-35.0803 c 0.37654,0.1391 0.76017,0.2403 1.14668,0.3055 l -3.18652,38.6634 8.55848,-0.03 -3.21511,-38.6374 c 0.0264,-0 0.053,-0.01 0.0793,-0.014 0.0321,-0.01 0.0642,-0.012 0.0962,-0.018 0.0335,-0.01 0.0668,-0.014 0.10011,-0.021 0.29999,-0.063 0.59199,-0.1459 0.87496,-0.2496 l 16.57481,35.0816 7.39621,-4.3046 -22.1015,-31.8496 c 0.30851,-0.2541 0.59265,-0.5371 0.84895,-0.8437 l 31.88727,22.0898 4.25388,-7.4274 -35.05427,-16.5268 c 0.14193,-0.3794 0.24892,-0.7761 0.31722,-1.1856 l 38.63343,3.2151 0.0299,-8.55722 -38.66854,3.18522 c -0.0674,-0.3924 -0.17038,-0.773 -0.30551,-1.1376 l 35.06857,-16.56831 -4.30458,-7.3975 -31.84437,22.0989 c -0.0287,-0.0346 -0.0565,-0.0688 -0.0858,-0.1027 -0.10171,-0.11774 -0.20865,-0.23059 -0.31853,-0.34063 -9.4e-4,-9.5e-4 -0.002,-0.003 -0.003,-0.004 -0.0341,-0.0341 -0.0691,-0.068 -0.104,-0.10142 -0.002,-0.002 -0.005,-0.005 -0.007,-0.007 -0.035,-0.0333 -0.071,-0.0663 -0.10661,-0.0988 -0.002,-0.002 -0.004,-0.005 -0.007,-0.007 -0.0357,-0.0325 -0.0714,-0.0633 -0.10791,-0.0949 -0.002,-0.002 -0.004,-0.005 -0.007,-0.007 -0.0335,-0.0291 -0.0686,-0.0575 -0.1027,-0.0858 l 22.08718,-31.88469 -7.42611,-4.25387 -16.52802,35.05687 c -0.37416,-0.13875 -0.76416,-0.24216 -1.16748,-0.30943 l 3.2151,-38.63342 -8.55848,-0.0299 z" fill="#ffffff" fill-opacity="1" fill-rule="nonzero" stroke="none"></path></g><desc>Created with Snap</desc><defs></defs></g><g><g transform="matrix(1.024,0,0,-1.024,0,0)"><path d="M371 722Q466 722 537 679Q609 636 648 555Q688 475 688 360Q688 248 647 164Q607 80 535 33Q463 -14 370 -14Q275 -14 203 29Q132 72 92 153Q53 234 53 348Q53 460 94 544Q135 628 206 675Q278 722 371 722ZM367 704Q302 704 254 659Q206 614 179 535Q153 456 153 352Q153 246 182 167Q212 89 262 46Q313 4 374 4Q439 4 487 49Q535 94 561 173Q588 253 588 356Q588 463 558 541Q529 619 479 661Q429 704 367 704ZM1038 708L1038 688Q1004 687 986 680Q969 674 963 656Q957 639 957 602L957 106Q957 70 963 52Q969 34 986 28Q1004 23 1038 23L1111 23Q1174 23 1206 41Q1239 59 1253 100Q1268 141 1275 210L1298 210Q1295 179 1295 128Q1295 109 1296 73Q1298 38 1302 0Q1251 2 1187 2Q1123 3 1073 3Q1043 3 993 3Q944 3 888 2Q832 2 783 0L783 20Q817 22 834 28Q852 34 858 52Q864 70 864 106L864 602Q864 639 858 656Q852 674 834 680Q817 687 783 688L783 708Q804 707 838 706Q872 705 911 705Q946 705 980 706Q1015 707 1038 708ZM1652 713L1896 84Q1911 46 1930 33Q1949 21 1965 20L1965 0Q1945 2 1916 2Q1887 3 1858 3Q1819 3 1785 2Q1751 2 1730 0L1730 20Q1781 22 1795 37Q1809 53 1789 104L1603 601L1619 614L1445 162Q1424 108 1425 77Q1426 47 1448 34Q1470 21 1512 20L1512 0Q1484 2 1453 2Q1423 3 1397 3Q1372 3 1354 2Q1337 2 1322 0L1322 20Q1342 25 1363 43Q1384 62 1401 107L1636 713Q1640 713 1644 713Q1648 713 1652 713ZM1486 288L1774 288L1774 268L1476 268L1486 288ZM2574 708L2574 688Q2543 684 2514 668Q2485 652 2456 615L2263 368L2285 417L2525 81Q2542 56 2562 42Q2582 28 2613 20L2613 0Q2589 2 2553 2Q2518 3 2493 3Q2476 3 2451 2Q2427 2 2390 0L2390 20Q2424 22 2433 32Q2442 42 2426 65L2280 285Q2260 316 2244 331Q2229 347 2212 352Q2196 357 2171 358L2171 378Q2213 379 2241 394Q2270 410 2289 434L2385 556Q2418 598 2430 627Q2442 656 2429 671Q2416 687 2374 688L2374 708Q2403 707 2433 706Q2463 705 2489 705Q2544 705 2574 708ZM2256 708L2256 688Q2222 687 2204 680Q2187 674 2181 656Q2175 639 2175 602L2175 106Q2175 70 2181 52Q2187 34 2204 28Q2222 22 2256 20L2256 0Q2233 2 2198 2Q2164 3 2129 3Q2090 3 2056 2Q2022 2 2001 0L2001 20Q2035 22 2052 28Q2070 34 2076 52Q2082 70 2082 106L2082 602Q2082 639 2076 656Q2070 674 2052 680Q2035 687 2001 688L2001 708Q2022 707 2056 706Q2090 705 2129 705Q2164 705 2198 706Q2233 707 2256 708ZM2937 713L3181 84Q3196 46 3215 33Q3234 21 3250 20L3250 0Q3230 2 3201 2Q3172 3 3143 3Q3104 3 3070 2Q3036 2 3015 0L3015 20Q3066 22 3080 37Q3094 53 3074 104L2888 601L2904 614L2730 162Q2709 108 2710 77Q2711 47 2733 34Q2755 21 2797 20L2797 0Q2769 2 2738 2Q2708 3 2682 3Q2657 3 2639 2Q2622 2 2607 0L2607 20Q2627 25 2648 43Q2669 62 2686 107L2921 713Q2925 713 2929 713Q2933 713 2937 713ZM2771 288L3059 288L3059 268L2761 268L2771 288ZM3559 708Q3738 708 3825 618Q3912 529 3912 362Q3912 253 3869 171Q3827 90 3746 45Q3665 0 3550 0Q3528 0 3485 1Q3442 3 3410 3Q3375 3 3341 2Q3307 2 3286 0L3286 20Q3320 22 3337 28Q3355 34 3361 52Q3367 70 3367 106L3367 602Q3367 639 3361 656Q3355 674 3337 680Q3320 687 3286 688L3286 708Q3307 707 3341 705Q3375 704 3408 705Q3443 706 3487 707Q3531 708 3559 708ZM3534 690Q3488 690 3474 673Q3460 656 3460 604L3460 104Q3460 52 3474 35Q3489 18 3535 18Q3644 18 3704 57Q3764 97 3788 173Q3812 249 3812 358Q3812 526 3750 608Q3689 690 3534 690Z" style="" fill="#ffffff"></path></g></g></g></svg>